{"title":"BloodWork(2002)MPEG-4[DaScubaDude]","uid":14280834,"size":1098635701,"categoryP":"video","categoryS":"movies","magnet":"?xt=urn:btih:ce56c76a200db44a83d624c5322ccb7194d93c32&amp;dn=BloodWork%282002%29MPEG-4%5BDaScubaDude%5D&amp;tr=udp%3A%2F%2Ftracker.leechers-paradise.org%3A6969&amp;tr=udp%3A%2F%2Fzer0day.ch%3A1337&amp;tr=udp%3A%2F%2Fopen.demonii.com%3A1337&amp;tr=udp%3A%2F%2Ftracker.coppersurfer.tk%3A6969&amp;tr=udp%3A%2F%2Fexodus.desync.com%3A6969","seeders":0,"leechers":1,"uploader":"dascuba","files":1,"time":1460356415,"description":"Blood Work (2002)\r\nR | 1h 50min | Action, Crime, Drama | 9 August 2002 (USA)\r\nStill recovering from a heart transplant, a retired FBI profiler returns to service when his own blood analysis offers clues to the identity of a serial killer.\r\nDirector: Clint Eastwood\r\nWriters: Michael Connelly (novel), Brian Helgeland (screenplay)\r\nStars: Clint Eastwood, Jeff Daniels, Anjelica Huston |\r\n\r\nGeneral\r\nComplete name                            : Blood WorkBLOOD_WORK_Title1.mp4\r\nFormat                                   : MPEG-4\r\nFormat profile                           : Base Media\r\nCodec ID                                 : isom\r\nFile size                                : 1.02 GiB\r\nDuration                                 : 1h 50mn\r\nOverall bit rate mode                    : Variable\r\nOverall bit rate                         : 1 327 Kbps\r\nMovie name                               : BLOOD_WORK\r\nGenre                                    : Thriller\r\nWriting application                      : Lavf54.6.100\r\n\r\nVideo\r\nID                                       : 1\r\nFormat                                   : AVC\r\nFormat/Info                              : Advanced Video Codec\r\nFormat profile                           :   \r\nFormat settings, CABAC                   : No\r\nFormat settings, ReFrames                : 6 frames\r\nCodec ID                                 : avc1\r\nCodec ID/Info                            : Advanced Video Coding\r\nDuration                                 : 1h 50mn\r\nBit rate                                 : 1 193 Kbps\r\nWidth                                    : 720 pixels\r\nHeight                                   : 404 pixels\r\nDisplay aspect ratio                     : 16:9\r\nFrame rate mode                          : Constant\r\nFrame rate                               : 29.970 fps\r\nColor space                              : YUV\r\nChroma subsampling                       : 4:2:0\r\nBit depth                                : 8 bits\r\nScan type                                : Progressive\r\nBits/(Pixel*Frame)                       : 0.137\r\nStream size                              : 941 MiB (90%)\r\n\r\nAudio\r\nID                                       : 2\r\nFormat                                   : AAC\r\nFormat/Info                              : Advanced Audio Codec\r\nFormat profile                           : LC\r\nCodec ID                                 : 40\r\nDuration                                 : 1h 50mn\r\nBit rate mode                            : Variable\r\nBit rate                                 : 128 Kbps\r\nMaximum bit rate                         : 134 Kbps\r\nChannel(s)                               : 2 channels\r\nChannel positions                        : Front: L R\r\nSampling rate                            : 44.1 KHz\r\nCompression mode                         : Lossy\r\nStream size                              : 101 MiB (10%)","torrent":{"xt":"urn:btih:ce56c76a200db44a83d624c5322ccb7194d93c32","amp;dn":"BloodWork%282002%29MPEG-4%5BDaScubaDude%5D","amp;tr":["udp%3A%2F%2Ftracker.leechers-paradise.org%3A6969","udp%3A%2F%2Fzer0day.ch%3A1337","udp%3A%2F%2Fopen.demonii.com%3A1337","udp%3A%2F%2Ftracker.coppersurfer.tk%3A6969","udp%3A%2F%2Fexodus.desync.com%3A6969"],"infoHash":"ce56c76a200db44a83d624c5322ccb7194d93c32","infoHashBuffer":{"type":"Buffer","data":[206,86,199,106,32,13,180,74,131,214,36,197,50,44,203,113,148,217,60,50]},"announce":[],"urlList":[]}}